# AST/ASF file generated using VICON BodyLanguage
# -----------------------------------------------
:version 1.10
:name VICON
:units
  mass 1.0
  length 0.45
  angle deg
:documentation
   .ast/.asf automatically generated from VICON data using
   VICON BodyBuilder and BodyLanguage model FoxedUp or BRILLIANT.MOD
:root
   order TX TY TZ RX RY RZ
   axis XYZ
   position 0 0 0  
   orientation 0 0 0 
:bonedata
  begin
     id 1 
     name lhipjoint
     direction 0.602128 -0.715006 0.355257 
     length 2.21237 
     axis 0 0 0  XYZ
  end
  begin
     id 2 
     name lfemur
     direction 0.34202 -0.939693 0  
     length 6.71649  
     axis 0 0 20  XYZ
    dof rx ry rz
    limits (-160.0 20.0)
           (-70.0 70.0)
           (-60.0 70.0)
  end
  begin
     id 3 
     name ltibia
     direction 0.34202 -0.939693 0   
     length 6.97123   
     axis 0 0 20   XYZ
    dof rx
    limits (-10.0 170.0)
  end
  begin
     id 4 
     name lfoot
     direction 0.0655697 -0.180151 0.981451   
     length 1.80924   
     axis -90 7.62852e-016 20   XYZ
    dof rx rz
    limits (-45.0 90.0)
           (-70.0 20.0)
  end
  begin
     id 5 
     name ltoes
     direction 1.53545e-011 -4.21827e-011 1   
     length 0.916331   
     axis -90 7.62852e-016 20   XYZ
    dof rx
    limits (-90.0 20.0)
  end
  begin
     id 6 
     name rhipjoint
     direction -0.625414 -0.698792 0.347201   
     length 2.2637  
     axis 0 0 0  XYZ 
  end
  begin
     id 7 
     name rfemur
     direction -0.34202 -0.939693 0   
     length 7.07595   
     axis 0 0 -20   XYZ
    dof rx ry rz
    limits (-160.0 20.0)
           (-70.0 70.0)
           (-70.0 60.0)
  end
  begin
     id 8 
     name rtibia
     direction -0.34202 -0.939693 0   
     length 7.22924   
     axis 0 0 -20   XYZ
    dof rx
    limits (-10.0 170.0)
 end
 begin
     id 9 
     name rfoot
     direction -0.0766747 -0.210662 0.974547   
     length 1.98482  
     axis -90 -7.62852e-016 -20   XYZ
    dof rx rz
    limits (-45.0 90.0)
           (-20.0 70.0)
  end
  begin
     id 10 
     name rtoes
     direction -1.53532e-011 -4.21867e-011 1   
     length 0.999842   
     axis -90 -7.62852e-016 -20   XYZ
    dof rx
    limits (-90.0 20.0)
  end
  begin
     id 11 
     name lowerback
     direction -0.0224668 0.997354 -0.0691422   
     length 2.09945   
     axis 0 0 0   XYZ
    dof rx ry rz
    limits (-20.0 45.0)
           (-30.0 30.0)
           (-30.0 30.0)
  end
  begin
     id 12 
     name upperback
     direction 0.0134698 0.998451 -0.0539888   
     length 2.09758   
     axis 0 0 0   XYZ
    dof rx ry rz
    limits (-20.0 45.0)
           (-30.0 30.0)
           (-30.0 30.0)
  end
  begin
     id 13 
     name thorax
     direction 0.0241905 0.99948 -0.0213333   
     length 2.10428   
     axis 0 0 0   XYZ
    dof rx ry rz
    limits (-20.0 45.0)
           (-30.0 30.0)
           (-30.0 30.0)
  end
  begin
     id 14 
     name lowerneck
     direction -0.00866847 0.995978 0.0891737   
     length 1.3959   
     axis 0 0 0   XYZ
    dof rx ry rz
    limits (-20.0 45.0)
           (-30.0 30.0)
           (-30.0 30.0)
  end
  begin
     id 15 
     name upperneck
     direction 0.0680679 0.992203 0.104404   
     length 1.39452   
     axis 0 0 0   XYZ
    dof rx ry rz
    limits (-20.0 45.0)
           (-30.0 30.0)
           (-30.0 30.0)
  end
  begin
     id 16
     name head
     direction 0.0242216 0.999358 0.0264054  
     length 1.40433  
     axis 0 0 0   XYZ
    dof rx ry rz
    limits (-20.0 45.0)
           (-30.0 30.0)
           (-30.0 30.0)
  end
  begin
     id 17 
     name lclavicle
     direction 0.929368 0.362991 -0.0671771  
     length 3.04887  
     axis 0 0 0   XYZ
    dof ry rz
    limits (-20.0 10.0)
           (0.0 20.0)
  end
  begin
     id 18 
     name lhumerus
     direction 1 -4.48967e-011 -7.13741e-028   
     length 4.77195   
     axis -180 -30 -90   XYZ
    dof rx ry rz
    limits (-60.0 90.0)
           (-90.0 90.0)
           (-90.0 90.0)
  end
  begin
     id 19
     name lradius
     direction 1 -4.48977e-011 3.60404e-027   
     length 2.98444   
     axis -180 -30 -90   XYZ
    dof rx
    limits (-10.0 170.0)
  end
  begin
     id 20
     name lwrist
     direction 1 -4.48997e-011 7.54877e-027   
     length 1.49222   
     axis -7.18178e-015 90 90   XYZ
    dof ry
    limits (-180.0 0.0)
 end
  begin
     id 21 
     name lhand
     direction 1 -4.489e-011 1.51105e-026   
     length 0.992285   
     axis -9.63605e-015 90 90   XYZ
    dof rx rz
    limits (-90.0 90.0)
           (-45.0 45.0)
  end
  begin
     id 22 
     name lfingers
     direction 1 -4.48998e-011 3.01948e-026   
     length 0.800006   
     axis -1.92718e-014 90 90   XYZ
    dof rx
    limits (0.0 90.0)
  end
  begin
     id 23
     name lthumb
     direction 0.707107 -6.34881e-011 0.707107   
     length 1.14865   
     axis -90 45 -3.53137e-014   XYZ
    dof rx rz
    limits (-45.0 45.0)
           (-45.0 45.0)
  end
  begin
     id 24 
     name rclavicle
     direction -0.945672 0.324529 0.0196374   
     length 3.4236  
     axis 0 0 0   XYZ 
    dof ry rz
    limits (-10.0 20.0)
           (-20.0 0.0)
  end
  begin
     id 25 
     name rhumerus
     direction -1 -4.4896e-011 1.02757e-029  
     length 4.62052   
     axis -180 30 90   XYZ
    dof rx ry rz
    limits (-90.0 60.0)
           (-90.0 90.0)
           (-90.0 90.0)
  end
  begin
     id 26 
     name rradius
     direction -1 -4.48982e-011 3.85962e-027   
     length 2.95332   
     axis -180 30 90   XYZ
    dof rx
    limits (-10.0 170.0)
  end
  begin
     id 27 
     name rwrist
     direction -1 -4.48961e-011 7.55118e-027   
     length 1.47666   
     axis -7.18178e-015 -90 -90   XYZ
    dof ry
    limits (-180.0 0.0)
  end
  begin
     id 28
     name rhand
     direction -1 -4.48984e-011 1.50994e-026   
     length 0.990956   
     axis -9.63605e-015 -90 -90   XYZ
    dof rx rz
    limits (-90.0 90.0)
           (-45.0 45.0)
  end
  begin
     id 29
     name rfingers
     direction -1 -4.4892e-011 3.02158e-026   
     length 0.798934   
     axis -1.92718e-014 -90 -90   XYZ
    dof rx
    limits (0.0 90.0)
  end
  begin
     id 30
     name rthumb
     direction -0.707107 -6.34916e-011 0.707107   
     length 1.14711   
     axis -90 -45 3.53137e-014   XYZ
    dof rx rz
    limits (-45.0 45.0)
           (-45.0 45.0)
  end
:hierarchy
  begin
    root lhipjoint rhipjoint lowerback
    lhipjoint lfemur
    lfemur ltibia
    ltibia lfoot
    lfoot ltoes
    rhipjoint rfemur
    rfemur rtibia
    rtibia rfoot
    rfoot rtoes
    lowerback upperback
    upperback thorax
    thorax lowerneck lclavicle rclavicle
    lowerneck upperneck
    upperneck head
    lclavicle lhumerus
    lhumerus lradius
    lradius lwrist
    lwrist lhand lthumb
    lhand lfingers
    rclavicle rhumerus
    rhumerus rradius
    rradius rwrist
    rwrist rhand rthumb
    rhand rfingers
  end

#!OML:ASF H:\ManfredObstacles\Project 1\Capture day 1\Session 1\Male.ASF
:FULLY-SPECIFIED
:DEGREES
258
root 0.495033 15.9121 29.4263 -150.354 -4.11582 -183.278
lowerback 0.472559 -2.39089 -4.07399
upperback 2.74612 -3.24879 0.8147
thorax 2.8364 -1.76436 3.0449
lowerneck -1.27884 -2.80019 -5.07021
upperneck -6.65996 -3.05494 8.87096
head -1.67731 -1.44592 3.83464
rclavicle -7.50412e-015 -6.95746e-016
rhumerus -51.3058 -18.2867 -60.98
rradius 25.2321
rwrist 33.5793
rhand -0.298861 -5.94174
rfingers 7.12502
rthumb 25.3041 -34.2833
lclavicle -7.50412e-015 -6.95746e-016
lhumerus -45.0299 -11.6497 76.4495
lradius 36.0891
lwrist -14.0996
lhand -11.7506 9.03003
lfingers 7.12502
lthumb 14.2973 38.5178
rfemur -47.7559 1.21707 18.6908
rtibia 42.3689
rfoot -30.5536 -0.920759
rtoes -11.04
lfemur -47.9346 -7.56781 -18.9855
ltibia 33.6751
lfoot -8.99962 -10.9205
ltoes 8.50579
259
root 0.496756 15.8198 29.4414 -148.827 -3.95238 -183.559
lowerback 1.45935 -2.23038 -3.97627
upperback 2.92099 -3.09238 0.622729
thorax 2.43146 -1.68615 2.83653
lowerneck -1.02962 -2.90203 -5.04243
upperneck -8.60671 -2.94136 9.30749
head -2.37243 -1.36749 4.03687
rclavicle 1.75924e-014 -2.24627e-014
rhumerus -53.426 -18.0118 -60.1608
rradius 25.7631
rwrist 32.809
rhand -0.417405 -5.896
rfingers 7.12502
rthumb 25.1905 -34.2536
lclavicle 1.75924e-014 -2.24627e-014
lhumerus -46.8015 -12.6904 76.2362
lradius 36.9367
lwrist -12.9494
lhand -11.8665 9.0744
lfingers 7.12502
lthumb 14.1857 38.57
rfemur -50.564 1.1899 18.3107
rtibia 44.4118
rfoot -31.5356 -1.13659
rtoes -11.942
lfemur -50.8364 -7.74055 -18.9647
ltibia 35.8153
lfoot -10.1534 -10.864
ltoes 6.49531
260
root 0.495434 15.7162 29.4572 -147.497 -3.77375 -183.851
lowerback 2.56631 -2.06293 -4.16798
upperback 3.11445 -2.94183 0.697355
thorax 2.01217 -1.62245 3.06564
lowerneck -0.443797 -3.01681 -5.22779
upperneck -10.9455 -2.81846 9.72366
head -2.92087 -1.31545 3.8633
rclavicle 1.65985e-014 8.19987e-015
rhumerus -55.3666 -16.9883 -59.5774
rradius 26.4714
rwrist 31.4988
rhand -0.374181 -6.07137
rfingers 7.12502
rthumb 25.2319 -34.4231
lclavicle 1.65985e-014 8.19987e-015
lhumerus -48.6379 -13.2858 76.5988
lradius 37.5423
lwrist -12.247
lhand -12.1885 8.77129
lfingers 7.12502
lthumb 13.8753 38.2884
rfemur -53.2399 1.01326 17.9557
rtibia 46.6697
rfoot -32.737 -1.18659
rtoes -12.0975
lfemur -53.6287 -7.81682 -19.063
ltibia 38.2043
lfoot -11.0857 -11.3323
ltoes 8.18989
261
root 0.4949 15.5964 29.4749 -146.376 -3.74219 -184.002
lowerback 3.97703 -1.99801 -4.13087
upperback 3.37172 -2.95079 0.748776
thorax 1.48955 -1.63672 3.15306
lowerneck 0.0119332 -3.05061 -5.18394
upperneck -13.1944 -2.57269 9.77799
head -3.68375 -1.15835 3.91228
rclavicle 1.44119e-015 2.38542e-015
rhumerus -57.0001 -16.2205 -59.2797
rradius 27.0577
rwrist 30.6794
rhand -0.390691 -6.18093
rfingers 7.12502
rthumb 25.2161 -34.5349
lclavicle 1.44119e-015 2.38542e-015
lhumerus -50.4594 -13.449 76.8068
lradius 38.2054
lwrist -11.8211
lhand -12.5765 8.69322
lfingers 7.12502
lthumb 13.5014 38.2356
rfemur -55.706 0.839043 17.807
rtibia 48.975
rfoot -33.6282 -1.20495
rtoes -12.2124
lfemur -56.2512 -7.79458 -19.0614
ltibia 40.6805
lfoot -11.911 -12.0189
ltoes 11.4598
262
root 0.500298 15.4531 29.4881 -145.32 -3.62388 -184.22
lowerback 5.24939 -1.91203 -4.35927
upperback 3.71426 -2.94439 0.845449
thorax 1.15092 -1.65855 3.42802
lowerneck 0.792526 -3.10431 -5.27639
upperneck -15.8223 -2.31166 9.83159
head -4.62388 -0.976792 3.99765
rclavicle 1.71452e-014 -8.74653e-015
rhumerus -58.2805 -15.7263 -59.0596
rradius 27.426
rwrist 30.1518
rhand -0.758652 -6.26101
rfingers 7.12502
rthumb 24.8635 -34.6642
lclavicle 1.71452e-014 -8.74653e-015
lhumerus -52.0319 -13.0007 76.9497
lradius 38.929
lwrist -11.5584
lhand -12.8307 8.74386
lfingers 7.12502
lthumb 13.2564 38.3023
rfemur -58.1913 0.742902 17.5548
rtibia 51.4742
rfoot -34.8211 -1.1075
rtoes -11.936
lfemur -58.9312 -7.85883 -19.0844
ltibia 43.4387
lfoot -13.1657 -12.3814
ltoes 12.9329
263
root 0.505366 15.3315 29.4942 -144.297 -3.28304 -184.429
lowerback 6.37224 -1.74596 -4.83163
upperback 4.09325 -2.84884 0.981523
thorax 0.942648 -1.64784 3.86999
lowerneck 1.66188 -3.18844 -5.483
upperneck -18.4833 -2.08262 9.90548
head -5.60205 -0.788841 4.11589
rclavicle 1.10574e-014 5.93869e-015
rhumerus -59.0668 -15.3002 -59.0333
rradius 27.4271
rwrist 29.5755
rhand -1.25175 -6.39321
rfingers 7.12502
rthumb 24.3909 -34.8608
lclavicle 1.10574e-014 5.93869e-015
lhumerus -53.304 -12.1919 77.2538
lradius 39.3502
lwrist -11.2692
lhand -13.2428 8.52682
lfingers 7.12502
lthumb 12.8592 38.1107
rfemur -60.5813 0.744775 17.2283
rtibia 54.0048
rfoot -36.1847 -1.07997
rtoes -12.2405
lfemur -61.544 -7.89067 -19.1439
ltibia 46.3195
lfoot -14.6689 -12.6121
ltoes 13.2933
264
root 0.503961 15.1553 29.496 -143.396 -2.97323 -184.46
lowerback 7.77645 -1.59612 -4.72759
upperback 4.31306 -2.7611 0.847846
thorax 0.370967 -1.61122 3.72484
lowerneck 2.16103 -3.26514 -5.50065
upperneck -20.4269 -1.84157 10.201
head -6.31078 -0.614456 4.25417
rclavicle 1.32192e-014 -5.64051e-015
rhumerus -59.7975 -15.364 -59.2136
rradius 27.0596
rwrist 29.3796
rhand -1.36823 -6.47536
rfingers 7.12502
rthumb 24.2792 -34.9579
lclavicle 1.32192e-014 -5.64051e-015
lhumerus -54.4938 -11.7791 77.4505
lradius 39.3516
lwrist -10.6266
lhand -13.7801 8.25474
lfingers 7.12502
lthumb 12.3411 37.8705
rfemur -63.0405 0.715936 17.1423
rtibia 56.8542
rfoot -37.4854 -1.01845
rtoes -13.1944
lfemur -64.2666 -7.78386 -19.1365
ltibia 49.5546
lfoot -15.7337 -13.1003
ltoes 15.264
265
root 0.512049 14.9602 29.486 -142.492 -2.66934 -184.477
lowerback 8.93922 -1.44685 -4.94601
upperback 4.56589 -2.68703 0.84902
thorax -0.00385258 -1.59546 3.88805
lowerneck 2.3501 -3.34014 -5.47275
upperneck -22.0405 -1.63606 10.3223
head -6.87429 -0.441279 4.31824
rclavicle 9.0447e-015 -1.48095e-014
rhumerus -59.9886 -15.6454 -59.2818
rradius 26.461
rwrist 29.5148
rhand -1.03731 -6.51362
rfingers 7.12502
rthumb 24.5964 -34.9534
lclavicle 9.0447e-015 -1.48095e-014
lhumerus -55.1392 -11.097 77.777
lradius 38.8851
lwrist -10.0304
lhand -14.3302 7.92758
lfingers 7.12502
lthumb 11.8107 37.5745
rfemur -65.6201 0.687145 17.1471
rtibia 59.8891
rfoot -38.8389 -0.833426
rtoes -13.5443
lfemur -67.0746 -7.47504 -19.2392
ltibia 52.988
lfoot -15.8303 -13.9658
ltoes 20.6936
266
root 0.512036 14.7496 29.4577 -141.601 -2.33988 -184.64
lowerback 9.87349 -1.3801 -5.34774
upperback 4.85554 -2.73624 0.828676
thorax -0.190723 -1.65152 4.13067
lowerneck 2.39415 -3.39963 -5.28532
upperneck -23.6042 -1.39489 10.3201
head -7.41479 -0.240833 4.30757
rclavicle 2.38542e-014 -2.43511e-014
rhumerus -59.5188 -16.6085 -58.9912
rradius 25.4105
rwrist 30.5801
rhand -0.62185 -6.29487
rfingers 7.12502
rthumb 24.9946 -34.6799
lclavicle 2.38542e-014 -2.43511e-014
lhumerus -55.3912 -9.83168 77.9155
lradius 38.4091
lwrist -9.77115
lhand -14.6582 7.56355
lfingers 7.12502
lthumb 11.4943 37.2284
rfemur -68.2618 0.32248 17.1959
rtibia 63.1729
rfoot -42.3735 2.0699
rtoes -2.32174
lfemur -69.8819 -7.1217 -19.7025
ltibia 56.6825
lfoot -17.2558 -14.4821
ltoes 20.1732
267
root 0.505518 14.5193 29.4094 -140.939 -1.91964 -184.6
lowerback 10.7815 -1.25653 -5.64424
upperback 4.87371 -2.67609 0.929913
thorax -0.654413 -1.62408 4.43904
lowerneck 3.64541 -3.37549 -5.74
upperneck -25.3735 -1.17425 10.5368
head -8.2432 -0.0769336 4.51911
rclavicle 1.09332e-014 2.03754e-015
rhumerus -59.0977 -17.886 -58.0407
rradius 24.0352
rwrist 32.1081
rhand -0.30719 -6.15841
rfingers 7.12502
rthumb 25.2961 -34.5011
lclavicle 1.09332e-014 2.03754e-015
lhumerus -55.8828 -8.17446 78.1976
lradius 37.9858
lwrist -10.0119
lhand -14.7255 7.22359
lfingers 7.12502
lthumb 11.4295 36.8921
rfemur -70.66 0.0454766 17.4557
rtibia 66.5286
rfoot -46.1056 4.41606
rtoes 5.87709
lfemur -72.4514 -6.55713 -20.1822
ltibia 60.5097
lfoot -18.9959 -14.5525
ltoes 15.6257
